<?xml version="1.0" encoding="utf-8"?>
<!-- Generator: Adobe Illustrator 28.0.0, SVG Export Plug-In . SVG Version: 6.00 Build 0)  -->
<svg version="1.1"
	 id="svg19854" xmlns:sodipodi="http://sodipodi.sourceforge.net/DTD/sodipodi-0.dtd" xmlns:inkscape="http://www.inkscape.org/namespaces/inkscape" xmlns:svg="http://www.w3.org/2000/svg" inkscape:version="1.2 (dc2aedaf03, 2022-05-15)" sodipodi:docname="dessin.svg"
	 xmlns="http://www.w3.org/2000/svg" xmlns:xlink="http://www.w3.org/1999/xlink" x="0px" y="0px" viewBox="0 0 606.8 606.8"
	 style="enable-background:new 0 0 606.8 606.8;" xml:space="preserve">
<style type="text/css">
	.st0{fill:#089629;}
	.st1{fill:#EAF3FF;}
	.st2{fill:#ADD0FF;}
	.st3{fill:#A0ED54;}
</style>
<sodipodi:namedview  bordercolor="#000000" borderopacity="0.25" id="namedview19856" inkscape:current-layer="layer1" inkscape:cx="394.41713" inkscape:cy="362.71158" inkscape:deskcolor="#d1d1d1" inkscape:document-units="mm" inkscape:pagecheckerboard="0" inkscape:pageopacity="0.0" inkscape:showpageshadow="2" inkscape:window-height="986" inkscape:window-maximized="1" inkscape:window-width="1920" inkscape:window-x="-11" inkscape:window-y="-11" inkscape:zoom="0.7885053" pagecolor="#ffffff" showgrid="false">
	</sodipodi:namedview>
<g id="layer1" transform="translate(2.0406036,-41.459396)" inkscape:groupmode="layer" inkscape:label="Calque 1">
	<path id="rect20027" class="st0" d="M301.4,41.5L301.4,41.5c167.6,0,303.4,135.8,303.4,303.4l0,0c0,167.6-135.8,303.4-303.4,303.4
		l0,0C133.8,648.3-2,512.5-2,344.9l0,0C-2,177.3,133.8,41.5,301.4,41.5z"/>
	<g id="g29583" transform="matrix(1.1404857,0,0,1.1404857,-14.750998,-20.862127)">
		<path id="path27896" class="st1" d="M404.4,321.3c0,69.9-56.7,126.6-126.6,126.6c-7.7,0-15.2-0.7-22.5-2
			c-22.8-22-48-33.5-73.7-42.3c-19-22.1-30.4-50.9-30.4-82.3c0-3.3,0.1-6.5,0.4-9.8c22.7-42.2,70.8-96.7,114.7-116.4
			c3.8-0.3,7.7-0.5,11.6-0.5c29.1,0,56,9.8,77.4,26.4c8.9,22.3,29.6,60.5,47.2,77.3C403.7,305.8,404.4,313.5,404.4,321.3z"/>
		<path id="path27898" class="st2" d="M220.7,263.9c-25.3,27-52.9,41.5-69.2,47.5c4.8-61.4,53.4-110.6,114.6-116.2
			C262.6,207.4,252.9,229.5,220.7,263.9L220.7,263.9z"/>
		<path id="path27900" class="st2" d="M341.8,381.5c26.7-30.1,46-58.3,60.4-83.8c-5.9-31.1-23.1-58.1-47.1-76.7
			c-8.9,21.6-33,59.8-77.3,105c-35,35.7-67.3,60.3-96.4,77.4c18.7,21.9,44.7,37.4,74.3,42.6C288.7,427.6,320.4,405.7,341.8,381.5
			L341.8,381.5z"/>
		<path id="path27902" class="st3" d="M435,165.2c-6.3-7.4-14.9-9.9-22.2-10.1c-7-0.2-13.9,1.5-20,3.7
			c-12.3,4.4-26.1,12.4-39.4,21.4c-10.2,6.8-20.7,14.6-30.8,22.6c12.5,4.7,24.1,11.4,34.4,19.6c5.6-4.2,11.3-8.2,16.8-11.9
			c12.6-8.5,23.4-14.5,31.4-17.3c0.3-0.1,0.6-0.2,0.9-0.3c-0.4,1.5-1,3.5-1.9,5.9c-3.9,10.1-11.8,23.3-22.9,38.7
			c-22,30.4-54,65.5-82.9,94.7c-28,28.3-66.1,62.1-99.6,86.5c-16.8,12.3-31.7,21.6-43.1,26.9c-2.4,1.1-4.5,2-6.3,2.6
			c1.8-4.8,5.1-11.1,10.2-19.2c5.5-8.7,12.3-18.2,19.7-28.4c-8.3-10.4-15.1-22.1-19.8-34.8c-2,2.8-4.1,5.6-6.1,8.5l-1,1.4
			c-8.2,11.3-16.7,22.9-23.5,33.8c-6.7,10.6-13,22.1-15.7,33c-2.8,11.2-2.7,26.5,10.3,37.2c8.3,6.8,18.2,7.1,25.3,6.1
			c7.3-1,15-3.7,22.3-7.1c14.7-6.7,31.9-17.8,49.4-30.6c35.3-25.8,74.9-60.9,104-90.4c29.4-29.7,62.9-66.3,86.5-99
			c11.7-16.2,21.7-32.4,27.4-46.8C443,199.2,447.5,179.9,435,165.2L435,165.2z M147.7,453.9c0,0.1,0,0.2,0,0.2
			C147.7,454,147.7,454,147.7,453.9z"/>
	</g>
</g>
</svg>
